<?xml version="1.0" encoding="utf-8"?>
<!-- Generator: Adobe Illustrator 22.0.0, SVG Export Plug-In . SVG Version: 6.00 Build 0)  -->
<svg version="1.1" id="Layer_1" xmlns="http://www.w3.org/2000/svg" xmlns:xlink="http://www.w3.org/1999/xlink" x="0px" y="0px"
	 viewBox="0 0 24 24" style="enable-background:new 0 0 24 24;" xml:space="preserve">
<style type="text/css">
	.st0{fill:none;stroke:#0071bc;stroke-width:2;stroke-miterlimit:10;}
</style>
<path class="st0" d="M12.5,3.5c1.1-0.2,1.8,0.3,2.2,1.1c2.3,4.3,4.6,8.6,6.9,12.9c0.5,0.9,0.1,2.1-0.7,2.7c-0.7,0.5-1.3,0.2-1.7-0.5
	c-1.3-2.1-2.5-4.1-3.8-6.2c-0.6-1-1.2-1.9-1.8-2.9C12.6,9,12.4,9,11.3,10.8c-1.7,2.7-3.4,5.5-5.1,8.2c-0.2,0.4-0.4,0.9-0.8,1.1
	c-0.4,0.2-1,0.3-1.4,0.1c-0.9-0.5-1.3-1.8-0.8-2.7c2.2-4.2,4.5-8.4,6.7-12.6C10.6,3.9,11.3,3.2,12.5,3.5z"/>
</svg>
