<?xml version="1.0" encoding="utf-8"?>
<!-- Generator: Adobe Illustrator 22.0.0, SVG Export Plug-In . SVG Version: 6.00 Build 0)  -->
<svg version="1.1" id="Layer_1" xmlns="http://www.w3.org/2000/svg" xmlns:xlink="http://www.w3.org/1999/xlink" x="0px" y="0px"
	 viewBox="0 0 2532 372" style="enable-background:new 0 0 2532 372;" xml:space="preserve">
<style type="text/css">
	.st0{fill:#333333;}
	.st1{fill:#1A1A1A;}
</style>
<polygon class="st0" points="0,271.5 453.2,271.5 477.8,208.2 710.1,275.6 798.4,100.5 345.2,100.5 320.7,163.8 88.3,96.4 "/>
<polygon class="st0" points="279.2,271.5 345.7,100.5 519.2,100.5 453.8,271.5 "/>
<g>
	<polygon class="st1" points="320.6,163.8 278.7,271.5 214.1,271.5 	"/>
	<polygon class="st1" points="477.8,208.2 519.7,100.5 584.2,100.5 	"/>
</g>
<g>
	<path class="st0" d="M1001.9,275.6V96.4h121.7v36.4h-80.3v38.6h66.2V205h-66.2v70.7h-41.4V275.6z"/>
	<path class="st0" d="M1174.6,96.4h37.4l65.4,179.3H1235l-13.9-40.1h-55.8l-13.6,40.1h-42.4L1174.6,96.4z M1214.3,207l-21-63.4
		l-21.5,63.4H1214.3z"/>
	<path class="st0" d="M1295.1,275.6V96.4h41.4v179.3h-41.4V275.6z"/>
	<path class="st0" d="M1405.1,96.4l39.1,61.9l39.1-61.9h44.7l-62.1,90.9l60.1,88.4h-44.7l-37.1-59.3l-37.1,59.3h-44.9l60.1-88.4
		l-62.1-90.9L1405.1,96.4L1405.1,96.4z"/>
	<path class="st0" d="M1592.2,96.4h37.4l65.4,179.3h-42.4l-13.9-40.1h-55.8l-13.6,40.1h-42.4L1592.2,96.4z M1631.9,207l-21-63.4
		l-21.5,63.4H1631.9z"/>
	<path class="st0" d="M1763.7,275.6V96.4h76.5c8.6,0,16.5,1.8,23.6,5.3c7.2,3.5,13.3,8.2,18.4,13.9c5.1,5.7,9.2,12.2,12.1,19.4
		s4.4,14.6,4.4,22c0,7.9-1.4,15.5-4.2,22.7c-2.8,7.2-6.7,13.7-11.6,19.4c-5,5.7-11,10.3-18.1,13.6c-7.1,3.4-14.9,5.1-23.5,5.1h-36.4
		v57.8H1763.7z M1805.1,181.7h33.8c4.9,0,9.1-2.1,12.6-6.3s5.3-10.4,5.3-18.4c0-4.2-0.5-7.8-1.6-10.9c-1.1-3-2.6-5.6-4.4-7.6
		c-1.9-2-4-3.5-6.3-4.4c-2.4-0.9-4.7-1.4-7.1-1.4h-32.3V181.7z"/>
	<path class="st0" d="M1921,275.6V96.4h80.8c8.4,0,16.2,1.8,23.4,5.3c7.2,3.5,13.3,8.2,18.6,13.9c5.2,5.7,9.3,12.2,12.2,19.4
		s4.4,14.6,4.4,22c0,5.6-0.7,10.9-2,16c-1.4,5.1-3.3,10-5.8,14.5s-5.6,8.6-9.2,12.2c-3.6,3.6-7.7,6.7-12.2,9.2l39.4,66.7h-46.7
		l-34.3-57.8h-27v57.8L1921,275.6L1921,275.6z M1962.4,181.7h37.9c4.9,0,9.1-2.3,12.6-6.9c3.5-4.6,5.3-10.6,5.3-17.8
		c0-7.4-2-13.3-6.1-17.7c-4-4.4-8.4-6.6-13.1-6.6h-36.6L1962.4,181.7L1962.4,181.7z"/>
	<path class="st0" d="M2216.1,239.3v36.4h-126V96.4h123.7v36.4h-82.3v34.8h70.7v33.6h-70.7v38.1L2216.1,239.3L2216.1,239.3z"/>
	<path class="st0" d="M2378,132.7h-54.5v142.9H2282V132.7h-54.8V96.4H2378V132.7z"/>
	<path class="st0" d="M2429.2,96.4h37.4l65.4,179.3h-42.4l-13.9-40.1h-55.8l-13.6,40.1h-42.4L2429.2,96.4z M2468.9,207l-21-63.4
		l-21.5,63.4H2468.9z"/>
</g>
</svg>
