<svg id="Layer_1" data-name="Layer 1" xmlns="http://www.w3.org/2000/svg" viewBox="0 0 500 500"><defs><style>.cls-1{fill:#1a1a1a;}.cls-2{fill:#333;}.cls-3{fill:#fff;}</style></defs><title>icon</title><rect class="cls-1" width="500" height="500" rx="88.7" ry="88.7"/><polygon class="cls-2" points="103.66 281.39 269.99 281.39 279 258.13 364.25 282.89 396.68 218.61 230.35 218.61 221.34 241.87 136.09 217.1 103.66 281.39"/><polygon class="cls-2" points="206.14 281.39 230.54 218.61 294.2 218.61 270.19 281.39 206.14 281.39"/><polygon class="cls-1" points="221.31 241.85 205.94 281.39 182.25 281.39 221.31 241.85 221.31 241.85"/><polygon class="cls-1" points="279 258.15 294.37 218.61 318.06 218.61 279 258.15 279 258.15"/><path class="cls-3" d="M135.36,217.11l85.22,24.75h0l9-23.26H396l-32.42,64.28-85.18-24.73-8.88,23.23H102.94l32.42-64.28m101.85-16.78H217.1L212.58,212l-3,7.63-69.16-20.08-14.58-4.24L119,208.88,86.62,273.17l-13.36,26.5H282l4.5-11.75,2.87-7.52,69,20L373,304.68l6.84-13.56,32.42-64.29,13.36-26.5H237.21Z" transform="translate(0.73 0)"/></svg>