<svg width="108" height="13" viewBox="0 0 108 13" fill="none" xmlns="http://www.w3.org/2000/svg">
<path d="M9.26449 8.11886V5.88526H3.72772V2.72952H10.0055V0.495911H0.928467V12.4631H3.72772V8.11886H9.26449Z" fill="#1A1A1A"/>
<path d="M14.1426 0.495911L8.81165 12.4631H11.6726L12.743 9.90165H18.3209L19.3912 12.4631H22.2728L16.8801 0.495911H14.1426ZM13.5868 7.81149L15.501 3.24181L17.4152 7.81149H13.5868Z" fill="#1A1A1A"/>
<path d="M25.2985 0.495911H22.4992V12.4631H25.2985V0.495911Z" fill="#1A1A1A"/>
<path d="M41.4765 0.495911L36.8042 10.9672L33.4081 6.2746L37.607 0.495911H34.6019L31.8849 4.34837L29.1063 0.495911H25.9571L30.1766 6.37706L25.7513 12.4631H28.921L31.782 8.30329L34.6842 12.4631H36.1456H37.8951H38.986L40.0563 9.90165H45.6342L46.7045 12.4631H49.6273L44.214 0.495911H41.4765ZM40.9414 7.81149L42.8556 3.24181L44.7698 7.81149H40.9414Z" fill="#1A1A1A"/>
<path d="M61.6476 1.02871C60.8655 0.680353 59.9392 0.516418 58.8689 0.516418H53.6615V12.4836H56.4607V9.16396H58.8689C59.9392 9.16396 60.8655 8.97953 61.6476 8.63117C62.4298 8.28281 63.0267 7.77052 63.4589 7.13527C63.8911 6.50003 64.097 5.72134 64.097 4.8197C64.097 3.93855 63.8911 3.15986 63.4589 2.50412C63.0267 1.86888 62.4298 1.37707 61.6476 1.02871ZM60.6391 6.37707C60.2068 6.74593 59.5687 6.93035 58.7249 6.93035H56.4813V2.77052H58.7249C59.5687 2.77052 60.2068 2.95494 60.6391 3.3033C61.0713 3.67216 61.2977 4.16396 61.2977 4.84019C61.2977 5.49593 61.0713 6.00822 60.6391 6.37707Z" fill="#1A1A1A"/>
<path d="M73.0299 8.61067C73.812 8.2828 74.4089 7.79099 74.8412 7.13526C75.2734 6.50001 75.4792 5.72132 75.4792 4.81968C75.4792 3.93853 75.2734 3.15985 74.8412 2.50411C74.4089 1.84837 73.812 1.35657 73.0299 1.00821C72.2477 0.659845 71.3215 0.495911 70.2512 0.495911H65.0438V12.4631H67.843V9.12296H70.2306C70.2718 9.12296 70.3129 9.12296 70.3541 9.12296L72.7006 12.4631H75.6851L73.0299 8.61067C73.0093 8.61067 73.0093 8.61067 73.0299 8.61067ZM72.0007 3.30329C72.433 3.67214 72.6594 4.16394 72.6594 4.84017C72.6594 5.49591 72.433 6.00821 72.0007 6.37706C71.5685 6.74591 70.9304 6.93034 70.0865 6.93034H67.843V2.7705H70.0865C70.9304 2.7705 71.5685 2.93444 72.0007 3.30329Z" fill="#1A1A1A"/>
<path d="M79.39 7.48362H84.9679V5.31148H79.39V2.72952H85.7089V0.495911H76.6319V12.4631H85.9353V10.25H79.39V7.48362Z" fill="#1A1A1A"/>
<path d="M96.2473 0.495911H85.7706V2.7705H89.6196V12.4631H92.3983V2.7705H96.2473V0.495911Z" fill="#1A1A1A"/>
<path d="M105.077 12.4631H108L102.607 0.495911H99.8698L94.5183 12.4631H97.3793L98.4496 9.90165H104.028L105.077 12.4631ZM99.3141 7.81149L101.228 3.24181L103.142 7.81149H99.3141Z" fill="#1A1A1A"/>
</svg>
