<?xml version="1.0" encoding="utf-8"?>
<!-- Generator: Adobe Illustrator 22.0.0, SVG Export Plug-In . SVG Version: 6.00 Build 0)  -->
<svg version="1.1" id="Layer_1" xmlns="http://www.w3.org/2000/svg" xmlns:xlink="http://www.w3.org/1999/xlink" x="0px" y="0px"
	 viewBox="0 0 1500 200" style="enable-background:new 0 0 1500 200;" xml:space="preserve">
<style type="text/css">
	.st0{fill:#333333;}
</style>
<g>
	<path class="st0" d="M8.9,186.8V13.2h117.9v35.3H49v37.4h64.1v32.5H49v68.5L8.9,186.8L8.9,186.8L8.9,186.8z"/>
	<path class="st0" d="M176.2,13.2h36.2l63.3,173.7h-41.1L221.2,148h-54L154,186.9h-41.1L176.2,13.2z M214.6,120.3l-20.3-61.4
		l-20.8,61.4H214.6z"/>
	<path class="st0" d="M292.9,186.8V13.2H333v173.7L292.9,186.8L292.9,186.8z"/>
	<path class="st0" d="M399.5,13.2l37.9,60l37.9-60h43.3l-60.2,88l58.2,85.6h-43.3l-35.9-57.4l-35.9,57.4h-43.5l58.2-85.6l-60.2-88
		L399.5,13.2L399.5,13.2z"/>
	<path class="st0" d="M580.7,13.2h36.2l63.3,173.7h-41.1L625.7,148h-54l-13.2,38.8h-41.1L580.7,13.2z M619.1,120.3l-20.3-61.4
		L578,120.3H619.1z"/>
	<path class="st0" d="M746.8,186.8V13.2h74.1c8.3,0,16,1.7,22.9,5.1c7,3.4,12.9,7.9,17.8,13.5c4.9,5.5,8.9,11.8,11.7,18.8
		s4.3,14.1,4.3,21.3c0,7.7-1.4,15-4.1,22c-2.7,7-6.5,13.3-11.2,18.8c-4.8,5.5-10.7,10-17.5,13.2c-6.9,3.3-14.4,4.9-22.8,4.9h-35.3
		v56H746.8z M786.9,95.8h32.7c4.7,0,8.8-2,12.2-6.1c3.4-4.1,5.1-10.1,5.1-17.8c0-4.1-0.5-7.6-1.5-10.6c-1.1-2.9-2.5-5.4-4.3-7.4
		c-1.8-1.9-3.9-3.4-6.1-4.3c-2.3-0.9-4.6-1.4-6.9-1.4h-31.3V95.8z"/>
	<path class="st0" d="M899.2,186.8V13.2h78.3c8.1,0,15.7,1.7,22.7,5.1c7,3.4,12.9,7.9,18,13.5c5,5.5,9,11.8,11.8,18.8
		c2.8,7,4.3,14.1,4.3,21.3c0,5.4-0.7,10.6-1.9,15.5c-1.4,4.9-3.2,9.7-5.6,14c-2.4,4.4-5.4,8.3-8.9,11.8c-3.5,3.5-7.5,6.5-11.8,8.9
		l38.2,64.6h-45.2l-33.2-56h-26.2v56L899.2,186.8L899.2,186.8z M939.3,95.8H976c4.7,0,8.8-2.2,12.2-6.7c3.4-4.5,5.1-10.3,5.1-17.2
		c0-7.2-1.9-12.9-5.9-17.1c-3.9-4.3-8.1-6.4-12.7-6.4h-35.5L939.3,95.8L939.3,95.8z"/>
	<path class="st0" d="M1185,151.6v35.3h-122V13.2h119.8v35.3h-79.7v33.7h68.5v32.5h-68.5v36.9L1185,151.6L1185,151.6z"/>
	<path class="st0" d="M1341.8,48.4H1289v138.4h-40.2V48.4h-53.1V13.2h146.1V48.4z"/>
	<path class="st0" d="M1391.4,13.2h36.2l63.3,173.7h-41.1l-13.5-38.8h-54l-13.2,38.8h-41.1L1391.4,13.2z M1429.9,120.3l-20.3-61.4
		l-20.8,61.4H1429.9z"/>
</g>
</svg>
