<svg width="166" height="15" viewBox="0 0 166 15" fill="none" xmlns="http://www.w3.org/2000/svg">
<g clip-path="url(#clip0_103_151)">
<path d="M67.2645 9.1188V6.88519H61.7277V3.72946H68.0055V1.49585H58.9285V13.4631H61.7277V9.1188H67.2645Z" fill="#1A1A1A"/>
<path d="M72.1426 1.49585L66.8116 13.4631H69.6726L70.743 10.9016H76.3209L77.3912 13.4631H80.2728L74.8801 1.49585H72.1426ZM71.5868 8.81142L73.501 4.24175L75.4152 8.81142H71.5868Z" fill="#1A1A1A"/>
<path d="M83.2985 1.49585H80.4993V13.4631H83.2985V1.49585Z" fill="#1A1A1A"/>
<path d="M99.4765 1.49585L94.8042 11.9672L91.408 7.27454L95.6069 1.49585H92.6018L89.8849 5.34831L87.1062 1.49585H83.957L88.1765 7.377L83.7512 13.4631H86.921L89.782 9.30323L92.6841 13.4631H94.1455H95.8951H96.9859L98.0562 10.9016H103.634L104.704 13.4631H107.627L102.214 1.49585H99.4765ZM98.9413 8.81142L100.855 4.24175L102.77 8.81142H98.9413Z" fill="#1A1A1A"/>
<path d="M119.648 2.02865C118.865 1.68029 117.939 1.51636 116.869 1.51636H111.661V13.4836H114.461V10.1639H116.869C117.939 10.1639 118.865 9.97947 119.648 9.63111C120.43 9.28275 121.027 8.77046 121.459 8.13521C121.891 7.49996 122.097 6.72128 122.097 5.81964C122.097 4.93849 121.891 4.1598 121.459 3.50406C121.027 2.86882 120.43 2.37701 119.648 2.02865ZM118.639 7.37701C118.207 7.74587 117.569 7.93029 116.725 7.93029H114.481V3.77046H116.725C117.569 3.77046 118.207 3.95488 118.639 4.30324C119.071 4.6721 119.298 5.1639 119.298 5.84013C119.298 6.49587 119.071 7.00816 118.639 7.37701Z" fill="#1A1A1A"/>
<path d="M131.03 9.61061C131.812 9.28274 132.409 8.79093 132.841 8.13519C133.273 7.49995 133.479 6.72126 133.479 5.81962C133.479 4.93847 133.273 4.15978 132.841 3.50405C132.409 2.84831 131.812 2.35651 131.03 2.00814C130.248 1.65978 129.322 1.49585 128.251 1.49585H123.044V13.4631H125.843V10.1229H128.231C128.272 10.1229 128.313 10.1229 128.354 10.1229L130.701 13.4631H133.685L131.03 9.61061C131.009 9.61061 131.009 9.61061 131.03 9.61061ZM130.001 4.30323C130.433 4.67208 130.659 5.16388 130.659 5.84011C130.659 6.49585 130.433 7.00815 130.001 7.377C129.569 7.74585 128.93 7.93028 128.087 7.93028H125.843V3.77044H128.087C128.93 3.77044 129.569 3.93437 130.001 4.30323Z" fill="#1A1A1A"/>
<path d="M137.39 8.48356H142.968V6.31142H137.39V3.72946H143.709V1.49585H134.632V13.4631H143.935V11.2499H137.39V8.48356Z" fill="#1A1A1A"/>
<path d="M154.247 1.49585H143.771V3.77044H147.62V13.4631H150.398V3.77044H154.247V1.49585Z" fill="#1A1A1A"/>
<path d="M163.077 13.4631H166L160.607 1.49585H157.87L152.518 13.4631H155.379L156.45 10.9016H162.028L163.077 13.4631ZM157.314 8.81142L159.228 4.24175L161.142 8.81142H157.314Z" fill="#1A1A1A"/>
<path d="M40.8156 15L29.4745 11.6803L28.4865 14.2623L0 14.1803L7.26572 0L7.36863 0.0614754L7.38921 0L18.5451 3.2377L19.5948 0.655738H48.0402L40.8156 15ZM27.8485 8.44262L39.416 11.8238L43.6972 3.34016H21.4061L20.1299 6.4959L8.64476 3.15574L4.36355 11.5369L26.6341 11.5984L27.8485 8.44262Z" fill="#1A1A1A"/>
</g>
<defs>
<clipPath id="clip0_103_151">
<rect width="166" height="15" fill="white"/>
</clipPath>
</defs>
</svg>
